<svg id="logo" xmlns="http://www.w3.org/2000/svg" role="img" viewBox="0 0 84 96"><title>Logo</title><g transform="translate(-8.000000, -2.000000)"><g transform="translate(11.000000, 5.000000)"><g transform="translate(25.000000, 27.000000)"><path d="M 0 32.65 L 2.4 28.65 Q 4.2 30.15 6.45 31.1 Q 8.7 32.05 11.7 32.05 A 13.991 13.991 0 0 0 13.974 31.877 Q 16.014 31.54 17.4 30.55 A 5.14 5.14 0 0 0 18.798 29.098 Q 19.456 28.045 19.497 26.683 A 6.058 6.058 0 0 0 19.5 26.5 A 6.471 6.471 0 0 0 19.371 25.187 A 5.596 5.596 0 0 0 19.2 24.55 Q 18.918 23.703 18.126 22.922 A 6.272 6.272 0 0 0 18.025 22.825 A 7.626 7.626 0 0 0 17.27 22.206 Q 16.87 21.916 16.384 21.626 A 16.822 16.822 0 0 0 15.575 21.175 A 25.61 25.61 0 0 0 14.324 20.566 Q 13.713 20.287 13.007 19.996 A 57.089 57.089 0 0 0 11.5 19.4 A 52.133 52.133 0 0 1 9.591 18.616 Q 8.657 18.21 7.849 17.807 A 27.519 27.519 0 0 1 6.925 17.325 A 14.788 14.788 0 0 1 5.423 16.39 Q 4.67 15.852 4.086 15.268 A 8.7 8.7 0 0 1 3.9 15.075 A 7.647 7.647 0 0 1 2.593 13.207 A 6.968 6.968 0 0 1 2.25 12.375 A 9.169 9.169 0 0 1 1.853 10.635 A 12.433 12.433 0 0 1 1.75 9 Q 1.75 7.15 2.525 5.5 A 7.972 7.972 0 0 1 4.546 2.859 A 9.343 9.343 0 0 1 4.825 2.625 A 10.212 10.212 0 0 1 6.883 1.355 A 13.45 13.45 0 0 1 8.575 0.7 Q 10.8 0 13.65 0 A 26.408 26.408 0 0 1 16.501 0.147 A 19.404 19.404 0 0 1 19.2 0.625 Q 21.65 1.25 24.05 2.4 L 22.3 6.45 Q 20.6 5.45 18.325 4.775 Q 16.05 4.1 13.55 4.1 Q 11.237 4.1 9.612 4.726 A 6.359 6.359 0 0 0 8.35 5.375 A 4.748 4.748 0 0 0 7.239 6.386 A 3.73 3.73 0 0 0 6.45 8.75 A 6.197 6.197 0 0 0 6.515 9.666 A 4.596 4.596 0 0 0 6.725 10.525 A 2.939 2.939 0 0 0 7.104 11.241 Q 7.314 11.537 7.609 11.826 A 5.609 5.609 0 0 0 7.825 12.025 A 7.556 7.556 0 0 0 8.527 12.567 Q 9.197 13.028 10.125 13.5 Q 11.116 14.004 12.547 14.576 A 57.731 57.731 0 0 0 14.05 15.15 Q 16.466 16.066 18.257 17.017 A 23.469 23.469 0 0 1 18.95 17.4 Q 20.697 18.405 21.834 19.524 A 9.514 9.514 0 0 1 22.15 19.85 A 8.596 8.596 0 0 1 23.362 21.509 A 7.369 7.369 0 0 1 23.875 22.65 A 9.361 9.361 0 0 1 24.349 24.854 A 11.446 11.446 0 0 1 24.4 25.95 A 10.773 10.773 0 0 1 24.147 28.33 A 8.653 8.653 0 0 1 23.45 30.3 Q 22.5 32.2 20.825 33.525 A 10.806 10.806 0 0 1 18.236 35.026 A 13.491 13.491 0 0 1 16.8 35.525 A 17.416 17.416 0 0 1 13.38 36.134 A 20.968 20.968 0 0 1 11.7 36.2 A 23.683 23.683 0 0 1 7.812 35.894 A 19.024 19.024 0 0 1 5.05 35.225 Q 2.05 34.25 0 32.65 Z" fill="currentColor"></path></g><polygon id="Shape" stroke="currentColor" stroke-width="5" stroke-linecap="round" stroke-linejoin="round" points="39 0 0 22 0 67 39 90 78 68 78 23"></polygon></g></g></svg>